<?xml version="1.0" standalone="no"?>
<!DOCTYPE svg PUBLIC "-//W3C//DTD SVG 20010904//EN"
 "http://www.w3.org/TR/2001/REC-SVG-20010904/DTD/svg10.dtd">
<svg version="1.0" xmlns="http://www.w3.org/2000/svg"
 width="500.000000pt" height="500.000000pt" viewBox="0 0 500.000000 500.000000"
 preserveAspectRatio="xMidYMid meet">

<g transform="translate(0.000000,500.000000) scale(0.100000,-0.100000)"
fill="#000000" stroke="none">
<path d="M608 3491 c-81 -82 -150 -160 -153 -173 -3 -12 -4 -362 -3 -775 l3
-752 23 -23 c22 -22 29 -23 230 -26 l207 -3 38 56 c20 30 37 57 37 60 0 3 -89
5 -198 5 -141 0 -201 3 -210 12 -9 9 -12 179 -12 705 l0 693 100 0 c136 0 140
4 140 145 l0 105 495 0 c480 0 495 -1 505 -20 7 -12 9 -152 8 -411 l-3 -392
-45 -15 c-85 -28 -174 -105 -204 -177 -8 -19 -18 -70 -22 -115 -5 -64 -12 -89
-35 -123 -29 -44 -220 -235 -392 -391 -149 -136 -176 -200 -122 -293 29 -49
68 -73 119 -73 78 0 113 27 193 149 55 85 74 107 258 299 138 144 141 146 251
153 80 5 96 10 135 36 60 42 84 70 108 123 38 88 40 220 2 220 -10 0 -45 -30
-78 -68 -80 -89 -99 -99 -158 -82 -43 12 -46 15 -61 68 l-16 54 96 97 97 97
-3 463 -3 463 -33 29 -32 29 -557 0 -557 0 -148 -149z m575 -1783 c22 -27 22
-59 -3 -85 -30 -33 -59 -38 -89 -16 -30 23 -39 65 -20 99 21 39 79 40 112 2z"/>
<path d="M1146 3358 c-53 -15 -111 -76 -125 -134 -22 -87 26 -186 106 -220 76
-32 186 -2 229 63 44 67 39 172 -11 231 -45 54 -129 79 -199 60z"/>
<path d="M1015 2928 c-107 -39 -185 -138 -185 -234 0 -68 -25 -64 371 -64
l359 0 10 24 c19 51 -16 155 -71 208 -15 15 -47 37 -71 50 -39 21 -57 23 -213
25 -106 1 -181 -2 -200 -9z"/>
<path d="M2157 2814 c-4 -4 -7 -97 -7 -206 l1 -198 45 0 44 0 0 75 c0 71 1 75
23 75 17 0 31 -16 62 -73 39 -70 41 -72 83 -75 23 -2 42 0 42 4 0 3 -17 39
-39 79 l-39 73 30 30 c25 25 30 38 31 80 2 99 -44 134 -183 140 -47 2 -89 0
-93 -4z m178 -84 c18 -15 20 -71 3 -88 -7 -7 -31 -12 -55 -12 l-43 0 0 61 0
62 40 -6 c23 -3 47 -11 55 -17z"/>
<path d="M3438 2801 c-49 -25 -65 -41 -88 -93 -38 -83 -21 -190 39 -249 97
-97 266 -61 296 64 7 26 5 27 -28 27 -26 0 -39 -6 -51 -25 -27 -41 -73 -59
-117 -46 -29 9 -42 20 -58 54 -52 107 3 227 98 213 36 -5 81 -40 81 -63 0 -9
14 -13 41 -13 41 0 41 0 35 32 -19 94 -152 147 -248 99z"/>
<path d="M4282 2800 c-12 -12 -25 -39 -28 -60 -5 -30 -11 -40 -25 -40 -14 0
-19 -7 -19 -30 0 -23 4 -30 20 -30 19 0 20 -7 20 -115 l0 -115 40 0 40 0 0
115 0 115 35 0 c32 0 35 2 35 30 0 28 -3 30 -36 30 -33 0 -35 2 -32 28 2 22 8
28 36 30 28 3 32 7 32 33 0 28 -2 29 -48 29 -35 0 -54 -6 -70 -20z"/>
<path d="M4460 2740 c0 -33 -3 -40 -20 -40 -16 0 -20 -7 -20 -30 0 -23 4 -30
20 -30 19 0 20 -7 20 -93 0 -85 2 -96 23 -115 18 -17 36 -22 75 -22 51 0 52 1
52 29 0 26 -4 30 -32 33 l-33 3 -3 83 -3 82 36 0 c32 0 35 2 35 30 0 28 -3 30
-35 30 -34 0 -35 1 -35 40 l0 40 -40 0 -40 0 0 -40z"/>
<path d="M2550 2697 c-53 -18 -80 -67 -80 -142 0 -48 5 -70 23 -96 45 -67 151
-77 209 -19 15 16 28 33 28 39 0 16 -52 13 -88 -5 -27 -13 -36 -13 -58 -2 -15
7 -31 23 -35 36 -8 22 -8 22 88 22 l96 0 -6 56 c-7 66 -32 99 -86 114 -44 12
-47 12 -91 -3z m90 -67 c32 -32 24 -40 -40 -40 -52 0 -59 2 -53 18 18 46 59
56 93 22z"/>
<path d="M2824 2699 c-38 -11 -52 -26 -60 -68 -6 -27 -2 -36 28 -64 19 -18 55
-37 81 -44 36 -10 47 -18 47 -33 0 -27 -43 -37 -75 -16 -32 21 -85 21 -85 1 0
-24 47 -62 85 -69 65 -13 120 7 143 51 30 55 -4 104 -88 131 -43 13 -55 22
-55 37 0 15 8 21 33 23 17 2 32 -1 32 -6 0 -6 18 -12 40 -14 24 -2 40 1 40 7
0 24 -33 55 -68 65 -43 12 -56 11 -98 -1z"/>
<path d="M3855 2690 c-47 -24 -45 -24 -45 -5 0 10 -11 15 -35 15 l-35 0 0
-145 0 -145 34 0 34 0 4 91 c4 81 7 94 27 110 13 11 34 19 47 19 21 0 24 4 24
40 0 22 -4 40 -8 40 -4 0 -25 -9 -47 -20z"/>
<path d="M4013 2704 c-31 -7 -73 -49 -73 -74 0 -29 60 -29 78 1 10 15 21 19
45 17 28 -3 32 -7 35 -34 l3 -31 -66 -5 c-82 -7 -115 -32 -115 -88 0 -72 86
-112 155 -72 28 17 35 18 35 7 0 -11 11 -15 36 -15 l36 0 -3 120 c-4 112 -6
121 -29 145 -26 25 -90 39 -137 29z m71 -231 c-42 -30 -111 -2 -87 35 6 10 28
19 54 22 41 5 44 3 47 -20 2 -14 -3 -29 -14 -37z"/>
<path d="M3030 2595 c0 -130 13 -168 63 -184 39 -13 83 -6 110 17 15 14 17 13
17 -1 0 -13 9 -17 35 -17 l35 0 0 145 0 145 -37 0 -38 0 3 -87 c3 -109 -8
-137 -60 -141 -32 -3 -37 0 -47 29 -6 18 -11 70 -11 115 l0 84 -35 0 -35 0 0
-105z"/>
<path d="M837 2483 c-14 -13 -6 -53 12 -63 12 -6 126 -10 299 -10 269 0 280 1
298 21 14 15 16 24 7 37 -9 15 -41 17 -310 20 -165 1 -302 -1 -306 -5z"/>
<path d="M834 2276 c-3 -8 -4 -23 -2 -33 3 -16 20 -18 183 -23 99 -3 212 -3
250 0 l70 5 0 30 0 30 -248 3 c-209 2 -248 0 -253 -12z"/>
<path d="M843 2084 c-20 -9 -15 -52 6 -64 11 -5 78 -10 149 -10 117 0 131 2
148 21 14 15 16 24 8 37 -10 15 -32 17 -155 19 -79 1 -150 -1 -156 -3z"/>
</g>
</svg>
